<?xml version="1.0" encoding="utf-8"?>
<!-- Generator: Adobe Illustrator 15.0.2, SVG Export Plug-In . SVG Version: 6.00 Build 0)  -->
<!DOCTYPE svg PUBLIC "-//W3C//DTD SVG 1.1//EN" "http://www.w3.org/Graphics/SVG/1.1/DTD/svg11.dtd">
<svg version="1.1" id="Layer_1" xmlns="http://www.w3.org/2000/svg" xmlns:xlink="http://www.w3.org/1999/xlink" x="0px" y="0px"
	 width="67.997px" height="68.278px" viewBox="0 0 67.997 68.278" enable-background="new 0 0 67.997 68.278" xml:space="preserve">
<g>
	<linearGradient id="SVGID_1_" gradientUnits="userSpaceOnUse" x1="53.4834" y1="164.2139" x2="53.4834" y2="140.4229">
		<stop  offset="0.2473" style="stop-color:#F7941D"/>
		<stop  offset="0.7143" style="stop-color:#F8BB49"/>
	</linearGradient>
	<path fill="url(#SVGID_1_)" d="M60.422,164.214v-17.842c0-3.286-2.662-5.949-5.947-5.949h-1.982c-3.286,0-5.947,2.663-5.947,5.949
		v17.842H60.422z"/>
	<linearGradient id="SVGID_2_" gradientUnits="userSpaceOnUse" x1="33.6582" y1="164.2139" x2="33.6582" y2="130.5127">
		<stop  offset="0.2473" style="stop-color:#F7941D"/>
		<stop  offset="0.7143" style="stop-color:#F8BB49"/>
	</linearGradient>
	<path fill="url(#SVGID_2_)" d="M40.597,164.214v-27.755c0-3.286-2.661-5.946-5.946-5.946h-1.983c-3.284,0-5.947,2.66-5.947,5.946
		v27.755H40.597z"/>
	<linearGradient id="SVGID_3_" gradientUnits="userSpaceOnUse" x1="13.834" y1="164.2139" x2="13.834" y2="120.5996">
		<stop  offset="0.2473" style="stop-color:#F7941D"/>
		<stop  offset="0.7143" style="stop-color:#F8BB49"/>
	</linearGradient>
	<path fill="url(#SVGID_3_)" d="M20.773,164.214v-37.668c0-3.283-2.662-5.946-5.948-5.946h-1.981c-3.286,0-5.948,2.663-5.948,5.946
		v37.668H20.773z"/>
	<linearGradient id="SVGID_4_" gradientUnits="userSpaceOnUse" x1="33.6992" y1="169.7881" x2="33.6992" y2="166.3203">
		<stop  offset="0" style="stop-color:#1C1C1C"/>
		<stop  offset="0.499" style="stop-color:#1C1C1C"/>
		<stop  offset="1" style="stop-color:#4E4E4E"/>
	</linearGradient>
	<rect x="6.812" y="166.32" fill="url(#SVGID_4_)" width="53.773" height="3.468"/>
</g>
<g>
	<linearGradient id="SVGID_5_" gradientUnits="userSpaceOnUse" x1="-196.0347" y1="-50.6519" x2="-196.0347" y2="-100.729">
		<stop  offset="0.2473" style="stop-color:#F7941D"/>
		<stop  offset="0.7143" style="stop-color:#F8BB49"/>
	</linearGradient>
	<path fill="url(#SVGID_5_)" d="M-173.969-87.524l-20.394,11.733l0.037-24.852c-0.568-0.039-1.131-0.086-1.708-0.086
		c-13.828,0-25.039,11.21-25.039,25.038c0,13.829,11.211,25.039,25.039,25.039c13.827,0,25.038-11.21,25.038-25.039
		C-170.996-79.971-172.075-84.001-173.969-87.524z"/>
	
		<linearGradient id="SVGID_6_" gradientUnits="userSpaceOnUse" x1="-159.0244" y1="19.7314" x2="-159.0244" y2="-41.7252" gradientTransform="matrix(0.8653 0.5012 -0.5012 0.8653 -44.4056 -18.3644)">
		<stop  offset="0" style="stop-color:#1C1C1C"/>
		<stop  offset="0.499" style="stop-color:#1C1C1C"/>
		<stop  offset="1" style="stop-color:#4E4E4E"/>
	</linearGradient>
	<path fill="url(#SVGID_6_)" d="M-191.578-105.681l-0.035,24.853l20.391-11.734C-175.19-99.947-182.759-105.084-191.578-105.681z"/>
</g>
<g>
	<linearGradient id="SVGID_7_" gradientUnits="userSpaceOnUse" x1="-84.9395" y1="-50.459" x2="-84.9395" y2="-191.7734">
		<stop  offset="0" style="stop-color:#1C1C1C"/>
		<stop  offset="0.499" style="stop-color:#1C1C1C"/>
		<stop  offset="1" style="stop-color:#4E4E4E"/>
	</linearGradient>
	<path fill="url(#SVGID_7_)" d="M-50.558-56.526h-65.729v-46.313c0-1.676-1.358-3.034-3.036-3.034c-1.674,0-3.032,1.358-3.032,3.034
		v49.347c0,0.306,0.059,0.597,0.144,0.875c0.377,1.245,1.521,2.158,2.889,2.158h68.765c1.677,0,3.034-1.358,3.034-3.034
		C-47.523-55.168-48.881-56.526-50.558-56.526z"/>
	
		<linearGradient id="SVGID_8_" gradientUnits="userSpaceOnUse" x1="-56.8887" y1="-40.6201" x2="-55.761" y2="-114.4838" gradientTransform="matrix(0.9442 0.3294 -0.3294 0.9442 -43.9499 -0.3571)">
		<stop  offset="0.2473" style="stop-color:#F7941D"/>
		<stop  offset="0.7143" style="stop-color:#F8BB49"/>
	</linearGradient>
	<path fill="url(#SVGID_8_)" d="M-50.016-74.91c-0.861-1.561-2.824-2.128-4.381-1.266l-16.868,9.303l-12.712-14.303
		c-0.305-0.34-0.658-0.599-1.047-0.779c-0.962-0.61-2.21-0.704-3.276-0.113l-19.029,10.495c-1.559,0.858-2.128,2.822-1.266,4.381
		c0.859,1.558,2.823,2.127,4.38,1.266l16.887-9.311l12.964,14.587c1.061,1.195,2.807,1.405,4.118,0.582l18.965-10.46
		C-49.725-71.387-49.155-73.35-50.016-74.91z"/>
	
		<linearGradient id="SVGID_9_" gradientUnits="userSpaceOnUse" x1="-80.6738" y1="-74.0308" x2="-80.6738" y2="-146.0154" gradientTransform="matrix(1 0.0079 -0.0079 1 -2.3085 1.8394)">
		<stop  offset="0" style="stop-color:#1C1C1C"/>
		<stop  offset="0.499" style="stop-color:#1C1C1C"/>
		<stop  offset="1" style="stop-color:#4E4E4E"/>
	</linearGradient>
	<path fill="url(#SVGID_9_)" d="M-55.797-100.025c-1.314-1.199-3.356-1.104-4.557,0.213l-12.974,14.235l-16.641-9.451
		c-0.396-0.223-0.815-0.353-1.241-0.399c-1.104-0.269-2.318,0.044-3.14,0.948l-14.636,16.061c-1.2,1.314-1.104,3.356,0.213,4.557
		c1.317,1.198,3.356,1.104,4.555-0.214l12.987-14.25l16.97,9.638c1.393,0.789,3.111,0.426,4.086-0.775l14.589-16.007
		C-54.385-96.785-54.479-98.825-55.797-100.025z"/>
</g>
<g>
	<linearGradient id="SVGID_10_" gradientUnits="userSpaceOnUse" x1="11.8896" y1="-50.0928" x2="11.8896" y2="-106.2407">
		<stop  offset="0.2473" style="stop-color:#F7941D"/>
		<stop  offset="0.7143" style="stop-color:#F8BB49"/>
	</linearGradient>
	<path fill="url(#SVGID_10_)" d="M21.75-54.889c0,2.649-2.147,4.796-4.797,4.796H6.827c-2.647,0-4.798-2.147-4.798-4.796v-46.555
		c0-2.65,2.15-4.796,4.798-4.796h10.126c2.649,0,4.797,2.146,4.797,4.796V-54.889z"/>
	<linearGradient id="SVGID_11_" gradientUnits="userSpaceOnUse" x1="55.5107" y1="-50.0928" x2="55.5107" y2="-106.2407">
		<stop  offset="0.2473" style="stop-color:#F7941D"/>
		<stop  offset="0.7143" style="stop-color:#F8BB49"/>
	</linearGradient>
	<path fill="url(#SVGID_11_)" d="M65.37-54.889c0,2.649-2.148,4.796-4.798,4.796H50.449c-2.652,0-4.798-2.147-4.798-4.796v-46.555
		c0-2.65,2.146-4.796,4.798-4.796h10.123c2.649,0,4.798,2.146,4.798,4.796V-54.889z"/>
	<linearGradient id="SVGID_12_" gradientUnits="userSpaceOnUse" x1="33.2734" y1="-50.0928" x2="33.2734" y2="-106.2407">
		<stop  offset="0" style="stop-color:#1C1C1C"/>
		<stop  offset="0.499" style="stop-color:#1C1C1C"/>
		<stop  offset="1" style="stop-color:#4E4E4E"/>
	</linearGradient>
	<path fill="url(#SVGID_12_)" d="M43.133-54.889c0,2.649-2.145,4.796-4.797,4.796H28.212c-2.649,0-4.797-2.147-4.797-4.796v-46.555
		c0-2.65,2.147-4.796,4.797-4.796h10.124c2.652,0,4.797,2.146,4.797,4.796V-54.889z"/>
	<linearGradient id="SVGID_13_" gradientUnits="userSpaceOnUse" x1="11.8896" y1="-54.8892" x2="11.8896" y2="-65.5474">
		<stop  offset="0" style="stop-color:#1C1C1C"/>
		<stop  offset="0.499" style="stop-color:#1C1C1C"/>
		<stop  offset="1" style="stop-color:#4E4E4E"/>
	</linearGradient>
	<circle fill="url(#SVGID_13_)" stroke="#FFFFFF" cx="11.89" cy="-60.218" r="5.328"/>
	<linearGradient id="SVGID_14_" gradientUnits="userSpaceOnUse" x1="55.5107" y1="-54.8892" x2="55.5107" y2="-65.5474">
		<stop  offset="0" style="stop-color:#1C1C1C"/>
		<stop  offset="0.499" style="stop-color:#1C1C1C"/>
		<stop  offset="1" style="stop-color:#4E4E4E"/>
	</linearGradient>
	<circle fill="url(#SVGID_14_)" stroke="#FFFFFF" cx="55.511" cy="-60.218" r="5.329"/>
	<linearGradient id="SVGID_15_" gradientUnits="userSpaceOnUse" x1="33.2734" y1="-54.8892" x2="33.2734" y2="-65.5474">
		<stop  offset="0" style="stop-color:#1C1C1C"/>
		<stop  offset="0.499" style="stop-color:#1C1C1C"/>
		<stop  offset="1" style="stop-color:#4E4E4E"/>
	</linearGradient>
	<circle fill="url(#SVGID_15_)" stroke="#FFFFFF" cx="33.273" cy="-60.218" r="5.331"/>
</g>
<g>
	<linearGradient id="SVGID_16_" gradientUnits="userSpaceOnUse" x1="33.6992" y1="-171.7612" x2="33.6992" y2="-212.769">
		<stop  offset="0" style="stop-color:#1C1C1C"/>
		<stop  offset="0.499" style="stop-color:#1C1C1C"/>
		<stop  offset="1" style="stop-color:#4E4E4E"/>
	</linearGradient>
	<path fill="url(#SVGID_16_)" d="M64.165-178.065c0,3.482-2.82,6.304-6.303,6.304H9.537c-3.483,0-6.303-2.822-6.303-6.304v-30.817
		c0-3.481,60.931-5.583,60.931-2.1V-178.065z"/>
	
		<linearGradient id="SVGID_17_" gradientUnits="userSpaceOnUse" x1="251.2314" y1="-83.5718" x2="251.2314" y2="-125.9937" gradientTransform="matrix(0.7071 -0.7071 0.7071 0.7071 -69.8566 40.7566)">
		<stop  offset="0.2473" style="stop-color:#F7941D"/>
		<stop  offset="0.7143" style="stop-color:#F8BB49"/>
	</linearGradient>
	<path fill="url(#SVGID_17_)" stroke="#FFFFFF" d="M62.478-212.198c0.672,0.673,0.672,1.758,0,2.434l-27.562,27.562
		c-0.675,0.671-1.761,0.671-2.435,0L4.918-209.764c-0.672-0.676-0.672-1.761,0-2.434L32.48-239.76c0.674-0.673,1.76-0.673,2.435,0
		L62.478-212.198z"/>
	<path fill="#FFFFFF" d="M52.958-200.502l-19.172,18.45l-17.86-16.743v-18.582c0-1.161,0.938-2.101,2.101-2.101h32.83
		c1.162,0,2.102,0.94,2.102,2.101V-200.502z"/>
	<linearGradient id="SVGID_18_" gradientUnits="userSpaceOnUse" x1="20.127" y1="-211.7959" x2="49.4131" y2="-211.7959">
		<stop  offset="0" style="stop-color:#070707"/>
		<stop  offset="1" style="stop-color:#45494D"/>
	</linearGradient>
	<rect x="20.127" y="-212.649" fill="url(#SVGID_18_)" width="29.286" height="1.708"/>
	<linearGradient id="SVGID_19_" gradientUnits="userSpaceOnUse" x1="20.127" y1="-207.5933" x2="49.4131" y2="-207.5933">
		<stop  offset="0" style="stop-color:#070707"/>
		<stop  offset="1" style="stop-color:#45494D"/>
	</linearGradient>
	<rect x="20.127" y="-208.446" fill="url(#SVGID_19_)" width="29.286" height="1.706"/>
	<linearGradient id="SVGID_20_" gradientUnits="userSpaceOnUse" x1="20.127" y1="-203.3911" x2="49.4131" y2="-203.3911">
		<stop  offset="0" style="stop-color:#070707"/>
		<stop  offset="1" style="stop-color:#45494D"/>
	</linearGradient>
	<rect x="20.127" y="-204.244" fill="url(#SVGID_20_)" width="29.286" height="1.706"/>
	<linearGradient id="SVGID_21_" gradientUnits="userSpaceOnUse" x1="20.127" y1="-199.1895" x2="49.4131" y2="-199.1895">
		<stop  offset="0" style="stop-color:#070707"/>
		<stop  offset="1" style="stop-color:#45494D"/>
	</linearGradient>
	<rect x="20.127" y="-200.042" fill="url(#SVGID_21_)" width="29.286" height="1.707"/>
	<linearGradient id="SVGID_22_" gradientUnits="userSpaceOnUse" x1="20.1758" y1="-194.9863" x2="47.1602" y2="-194.9863">
		<stop  offset="0" style="stop-color:#070707"/>
		<stop  offset="1" style="stop-color:#45494D"/>
	</linearGradient>
	<polygon fill="url(#SVGID_22_)" points="47.16,-195.84 20.176,-195.84 21.864,-194.133 45.472,-194.133 	"/>
	<linearGradient id="SVGID_23_" gradientUnits="userSpaceOnUse" x1="24.3311" y1="-190.7842" x2="43.0029" y2="-190.7842">
		<stop  offset="0" style="stop-color:#070707"/>
		<stop  offset="1" style="stop-color:#45494D"/>
	</linearGradient>
	<polygon fill="url(#SVGID_23_)" points="43.003,-191.638 24.331,-191.638 26.019,-189.93 41.313,-189.93 	"/>
	<linearGradient id="SVGID_24_" gradientUnits="userSpaceOnUse" x1="28.4873" y1="-186.582" x2="38.8447" y2="-186.582">
		<stop  offset="0" style="stop-color:#070707"/>
		<stop  offset="1" style="stop-color:#45494D"/>
	</linearGradient>
	<polygon fill="url(#SVGID_24_)" points="38.845,-187.436 28.487,-187.436 30.178,-185.729 37.156,-185.729 	"/>
</g>
<g>
	<path fill="none" stroke="#000000" d="M-62.596-205.713h-44.934c-2.978,0-5.391,2.414-5.391,5.392v16.175h2.098v-0.299h-1.326
		v-15.727c0-2.895,2.347-5.242,5.243-5.242h43.686c2.895,0,5.245,2.347,5.245,5.242v15.727h-1.627v0.299h2.397v-16.175
		C-57.204-203.299-59.618-205.713-62.596-205.713z"/>
	<rect x="-85.813" y="-200.321" fill="none" stroke="#000000" width="1.501" height="11.383"/>
	<rect x="-85.813" y="-223.687" fill="none" stroke="#000000" width="1.501" height="11.383"/>
	<linearGradient id="SVGID_25_" gradientUnits="userSpaceOnUse" x1="-122.7588" y1="-184.4453" x2="-102.0898" y2="-184.4453">
		<stop  offset="0" style="stop-color:#070707"/>
		<stop  offset="1" style="stop-color:#45494D"/>
	</linearGradient>
	<path fill="url(#SVGID_25_)" d="M-102.09-183.547c0,2.978-2.414,5.393-5.392,5.393h-9.884c-2.979,0-5.393-2.415-5.393-5.393v-1.797
		c0-2.978,2.415-5.392,5.393-5.392h9.884c2.979,0,5.392,2.415,5.392,5.392V-183.547z"/>
	<linearGradient id="SVGID_26_" gradientUnits="userSpaceOnUse" x1="-95.3994" y1="-184.4453" x2="-74.7285" y2="-184.4453">
		<stop  offset="0" style="stop-color:#070707"/>
		<stop  offset="1" style="stop-color:#45494D"/>
	</linearGradient>
	<path fill="url(#SVGID_26_)" d="M-74.729-183.547c0,2.978-2.415,5.393-5.393,5.393h-9.887c-2.977,0-5.392-2.415-5.392-5.393v-1.797
		c0-2.978,2.415-5.392,5.392-5.392h9.887c2.978,0,5.393,2.415,5.393,5.392V-183.547z"/>
	<linearGradient id="SVGID_27_" gradientUnits="userSpaceOnUse" x1="-85.064" y1="-199.7227" x2="-85.064" y2="-212.3032">
		<stop  offset="0.2473" style="stop-color:#F7941D"/>
		<stop  offset="0.7143" style="stop-color:#F8BB49"/>
	</linearGradient>
	<path fill="url(#SVGID_27_)" d="M-74.729-205.115c0,2.979-2.415,5.393-5.393,5.393h-9.887c-2.977,0-5.392-2.414-5.392-5.393v-1.796
		c0-2.978,2.415-5.392,5.392-5.392h9.887c2.978,0,5.393,2.414,5.393,5.392V-205.115z"/>
	<linearGradient id="SVGID_28_" gradientUnits="userSpaceOnUse" x1="-85.064" y1="-221.291" x2="-85.064" y2="-233.8716">
		<stop  offset="0" style="stop-color:#1C1C1C"/>
		<stop  offset="0.499" style="stop-color:#1C1C1C"/>
		<stop  offset="1" style="stop-color:#4E4E4E"/>
	</linearGradient>
	<path fill="url(#SVGID_28_)" d="M-74.729-226.682c0,2.978-2.415,5.391-5.393,5.391h-9.887c-2.977,0-5.392-2.414-5.392-5.391v-1.797
		c0-2.979,2.415-5.392,5.392-5.392h9.887c2.978,0,5.393,2.414,5.393,5.392V-226.682z"/>
	<linearGradient id="SVGID_29_" gradientUnits="userSpaceOnUse" x1="-67.7861" y1="-184.4453" x2="-47.1201" y2="-184.4453">
		<stop  offset="0" style="stop-color:#070707"/>
		<stop  offset="1" style="stop-color:#45494D"/>
	</linearGradient>
	<path fill="url(#SVGID_29_)" d="M-47.12-183.547c0,2.978-2.413,5.393-5.391,5.393h-9.885c-2.979,0-5.391-2.415-5.391-5.393v-1.797
		c0-2.978,2.412-5.392,5.391-5.392h9.885c2.978,0,5.391,2.415,5.391,5.392V-183.547z"/>
</g>
<g>
	<linearGradient id="SVGID_30_" gradientUnits="userSpaceOnUse" x1="-196.0347" y1="-173.7085" x2="-196.0347" y2="-205.2251">
		<stop  offset="0.2473" style="stop-color:#F7941D"/>
		<stop  offset="1" style="stop-color:#F8BB49"/>
	</linearGradient>
	<path fill="url(#SVGID_30_)" d="M-162.942-180.012c0,3.482-2.822,6.304-6.304,6.304h-53.578c-3.482,0-6.303-2.821-6.303-6.304
		v-18.909c0-3.482,2.821-6.304,6.303-6.304h53.578c3.482,0,6.304,2.821,6.304,6.304V-180.012z"/>
	<linearGradient id="SVGID_31_" gradientUnits="userSpaceOnUse" x1="-216.2593" y1="-218.0947" x2="-175.812" y2="-218.0947">
		<stop  offset="0" style="stop-color:#070707"/>
		<stop  offset="1" style="stop-color:#45494D"/>
	</linearGradient>
	<path fill="url(#SVGID_31_)" stroke="#FFFFFF" d="M-196.036-238.317c-11.168,0-20.224,9.055-20.224,20.223
		s9.056,20.223,20.224,20.223c11.168,0,20.224-9.054,20.224-20.223S-184.867-238.317-196.036-238.317z M-196.036-201.548
		c-9.137,0-16.546-7.41-16.546-16.546c0-9.138,7.409-16.546,16.546-16.546c9.137,0,16.546,7.409,16.546,16.546
		C-179.49-208.958-186.898-201.548-196.036-201.548z"/>
	<linearGradient id="SVGID_32_" gradientUnits="userSpaceOnUse" x1="-196.0347" y1="-192.6182" x2="-196.0347" y2="-224.1353">
		<stop  offset="0.2473" style="stop-color:#F7941D"/>
		<stop  offset="0.7143" style="stop-color:#F8BB49"/>
	</linearGradient>
	<path fill="url(#SVGID_32_)" stroke="#FFFFFF" d="M-162.942-198.921c0,3.481-2.822,6.303-6.304,6.303h-53.578
		c-3.482,0-6.303-2.822-6.303-6.303v-18.91c0-3.482,2.821-6.304,6.303-6.304h53.578c3.482,0,6.304,2.822,6.304,6.304V-198.921z"/>
	<linearGradient id="SVGID_33_" gradientUnits="userSpaceOnUse" x1="-199.1875" y1="-193.6694" x2="-192.8838" y2="-193.6694">
		<stop  offset="0" style="stop-color:#070707"/>
		<stop  offset="1" style="stop-color:#45494D"/>
	</linearGradient>
	<path fill="url(#SVGID_33_)" stroke="#FFFFFF" d="M-192.884-189.466c0,1.739-1.412,3.151-3.152,3.151l0,0
		c-1.74,0-3.152-1.412-3.152-3.151v-8.405c0-1.739,1.412-3.152,3.152-3.152l0,0c1.74,0,3.152,1.413,3.152,3.152V-189.466z"/>
</g>
<g>
	<circle fill="#0088CC" stroke="#FFFFFF" cx="33.7" cy="34.34" r="31.884"/>
	<linearGradient id="SVGID_34_" gradientUnits="userSpaceOnUse" x1="33.7012" y1="59.3086" x2="33.7012" y2="9.3701">
		<stop  offset="0" style="stop-color:#1C1C1C"/>
		<stop  offset="0.499" style="stop-color:#1C1C1C"/>
		<stop  offset="1" style="stop-color:#4E4E4E"/>
	</linearGradient>
	<circle fill="url(#SVGID_34_)" stroke="#FFFFFF" cx="33.701" cy="34.34" r="24.97"/>
	<circle fill="#FFFFFF" cx="33.7" cy="13.692" r="1.632"/>
	<circle fill="#FFFFFF" cx="33.7" cy="55.18" r="1.632"/>
	<circle fill="#FFFFFF" cx="54.293" cy="34.435" r="1.633"/>
	<circle fill="#FFFFFF" cx="33.702" cy="34.435" r="1.633"/>
	<circle fill="#FFFFFF" cx="12.805" cy="34.435" r="1.633"/>
	<polygon fill="#FFFFFF" points="32.989,33.347 49.188,18.559 34.457,35.227 	"/>
	<polygon fill="#FFFFFF" points="34.893,33.283 23.081,20.8 32.49,35.3 	"/>
</g>
<linearGradient id="SVGID_35_" gradientUnits="userSpaceOnUse" x1="-100.333" y1="28.7754" x2="-100.333" y2="8.9502">
	<stop  offset="0" style="stop-color:#1C1C1C"/>
	<stop  offset="0.499" style="stop-color:#1C1C1C"/>
	<stop  offset="1" style="stop-color:#4E4E4E"/>
</linearGradient>
<path fill="url(#SVGID_35_)" d="M-85.603,26.297c0,1.369-1.109,2.479-2.477,2.479h-24.505c-1.369,0-2.479-1.109-2.479-2.479V11.429
	c0-1.369,1.109-2.479,2.479-2.479h24.505c1.368,0,2.477,1.109,2.477,2.479V26.297z"/>
<linearGradient id="SVGID_36_" gradientUnits="userSpaceOnUse" x1="-84.9395" y1="62.2598" x2="-84.9395" y2="14.6816">
	<stop  offset="0.2473" style="stop-color:#F7941D"/>
	<stop  offset="0.7143" style="stop-color:#F8BB49"/>
</linearGradient>
<path fill="url(#SVGID_36_)" d="M-49.585,56.312c0,3.285-2.665,5.947-5.949,5.947h-58.812c-3.284,0-5.947-2.662-5.947-5.947V20.629
	c0-3.285,2.663-5.947,5.947-5.947h58.812c3.284,0,5.949,2.662,5.949,5.947V56.312z"/>
<g>
	<linearGradient id="SVGID_37_" gradientUnits="userSpaceOnUse" x1="-84.9395" y1="179.5146" x2="-84.9395" y2="110.873">
		<stop  offset="0" style="stop-color:#1C1C1C"/>
		<stop  offset="0.499" style="stop-color:#1C1C1C"/>
		<stop  offset="1" style="stop-color:#4E4E4E"/>
	</linearGradient>
	<path fill="url(#SVGID_37_)" d="M-69.079,120.041h-29.214v-6.814c0-1.301-1.055-2.354-2.355-2.354
		c-1.299,0-2.354,1.053-2.354,2.354v7.248c-2.192,0.874-3.746,3.009-3.746,5.513v47.581c0,3.283,2.664,5.946,5.948,5.946h31.72
		c3.283,0,5.947-2.663,5.947-5.946v-47.581C-63.132,122.706-65.796,120.041-69.079,120.041z"/>
	<linearGradient id="SVGID_38_" gradientUnits="userSpaceOnUse" x1="-84.9395" y1="158.6982" x2="-84.9395" y2="124.9971">
		<stop  offset="0.2473" style="stop-color:#F7941D"/>
		<stop  offset="0.7143" style="stop-color:#F8BB49"/>
	</linearGradient>
	<path fill="url(#SVGID_38_)" stroke="#FFFFFF" d="M-68.088,152.752c0,3.284-2.664,5.946-5.948,5.946h-21.808
		c-3.283,0-5.947-2.662-5.947-5.946v-21.808c0-3.284,2.664-5.947,5.947-5.947h21.808c3.284,0,5.948,2.663,5.948,5.947V152.752z"/>
	<linearGradient id="SVGID_39_" gradientUnits="userSpaceOnUse" x1="-84.9404" y1="173.2373" x2="-84.9404" y2="163.3262">
		<stop  offset="0.2473" style="stop-color:#F7941D"/>
		<stop  offset="0.7143" style="stop-color:#F8BB49"/>
	</linearGradient>
	<circle fill="url(#SVGID_39_)" stroke="#FFFFFF" cx="-84.94" cy="168.283" r="4.957"/>
	<rect x="-101.349" y="164.647" fill="#FFFFFF" width="6.608" height="3.303"/>
	<rect x="-101.349" y="170.594" fill="#FFFFFF" width="6.608" height="3.305"/>
	<rect x="-75.576" y="164.647" fill="#FFFFFF" width="6.607" height="3.303"/>
	<rect x="-75.576" y="170.594" fill="#FFFFFF" width="6.607" height="3.305"/>
</g>
<g>
	<linearGradient id="SVGID_40_" gradientUnits="userSpaceOnUse" x1="-201.5708" y1="162.1104" x2="-201.5708" y2="111.6729">
		<stop  offset="0" style="stop-color:#1C1C1C"/>
		<stop  offset="0.499" style="stop-color:#1C1C1C"/>
		<stop  offset="1" style="stop-color:#4E4E4E"/>
	</linearGradient>
	<path fill="url(#SVGID_40_)" d="M-172.663,111.673h-57.816c-3.057,0-5.536,2.479-5.536,5.535v39.364
		c0,3.058,2.479,5.538,5.536,5.538h57.816c3.057,0,5.536-2.48,5.536-5.538v-39.364
		C-167.126,114.151-169.605,111.673-172.663,111.673z M-176.275,158.959h-50.591c-2.675,0-4.844-2.172-4.844-4.846v-29.171h60.278
		v29.171C-171.432,156.787-173.601,158.959-176.275,158.959z"/>
	<path fill="#F2F2F2" d="M-157.286,171.954c0,3.058-2.479,5.535-5.536,5.535h-54.126c-3.057,0-5.536-2.478-5.536-5.535V139.97
		c0-3.057,2.479-5.535,5.536-5.535h54.126c3.057,0,5.536,2.479,5.536,5.535V171.954z"/>
	<linearGradient id="SVGID_41_" gradientUnits="userSpaceOnUse" x1="-190.4995" y1="178.7148" x2="-190.4995" y2="128.2803">
		<stop  offset="0.2473" style="stop-color:#F7941D"/>
		<stop  offset="0.7143" style="stop-color:#F8BB49"/>
	</linearGradient>
	<path fill="url(#SVGID_41_)" d="M-161.592,128.28h-57.816c-3.057,0-5.537,2.478-5.537,5.535v39.364
		c0,3.057,2.479,5.535,5.537,5.535h57.816c3.057,0,5.537-2.479,5.537-5.535v-39.364C-156.055,130.758-158.535,128.28-161.592,128.28
		z M-165.204,175.565h-50.591c-2.674,0-4.843-2.171-4.843-4.844V141.55h60.278v29.172
		C-160.36,173.395-162.529,175.565-165.204,175.565z"/>
	<linearGradient id="SVGID_42_" gradientUnits="userSpaceOnUse" x1="-190.9102" y1="149.042" x2="-190.9102" y2="147.1963">
		<stop  offset="0" style="stop-color:#1C1C1C"/>
		<stop  offset="0.499" style="stop-color:#1C1C1C"/>
		<stop  offset="1" style="stop-color:#4E4E4E"/>
	</linearGradient>
	<rect x="-216.743" y="147.196" fill="url(#SVGID_42_)" width="51.666" height="1.846"/>
	<linearGradient id="SVGID_43_" gradientUnits="userSpaceOnUse" x1="-190.9102" y1="159.6514" x2="-190.9102" y2="157.8086">
		<stop  offset="0" style="stop-color:#1C1C1C"/>
		<stop  offset="0.499" style="stop-color:#1C1C1C"/>
		<stop  offset="1" style="stop-color:#4E4E4E"/>
	</linearGradient>
	<rect x="-216.743" y="157.809" fill="url(#SVGID_43_)" width="51.666" height="1.843"/>
	<linearGradient id="SVGID_44_" gradientUnits="userSpaceOnUse" x1="-190.9102" y1="170.7246" x2="-190.9102" y2="168.8779">
		<stop  offset="0" style="stop-color:#1C1C1C"/>
		<stop  offset="0.499" style="stop-color:#1C1C1C"/>
		<stop  offset="1" style="stop-color:#4E4E4E"/>
	</linearGradient>
	<rect x="-216.743" y="168.878" fill="url(#SVGID_44_)" width="51.666" height="1.847"/>
</g>
<g>
	<g>
		<linearGradient id="SVGID_45_" gradientUnits="userSpaceOnUse" x1="-196.0347" y1="32.3613" x2="-196.0347" y2="10.3623">
			<stop  offset="0" style="stop-color:#1C1C1C"/>
			<stop  offset="0.499" style="stop-color:#1C1C1C"/>
			<stop  offset="1" style="stop-color:#4E4E4E"/>
		</linearGradient>
		<path fill="url(#SVGID_45_)" d="M-224.702,32.361c-1.65,0-1.908-0.794-0.574-1.765l26.815-19.507c1.334-0.971,3.518-0.971,4.852,0
			l26.815,19.507c1.334,0.971,1.076,1.765-0.574,1.765H-224.702z"/>
		<path fill="none" stroke="#FFFFFF" d="M-224.702,32.361c-1.65,0-1.908-0.794-0.574-1.765l26.815-19.507
			c1.334-0.971,3.518-0.971,4.852,0l26.815,19.507c1.334,0.971,1.076,1.765-0.574,1.765H-224.702z"/>
	</g>
	<linearGradient id="SVGID_46_" gradientUnits="userSpaceOnUse" x1="-195.7432" y1="68.2783" x2="-195.7432" y2="57.9883">
		<stop  offset="0" style="stop-color:#1C1C1C"/>
		<stop  offset="0.499" style="stop-color:#1C1C1C"/>
		<stop  offset="1" style="stop-color:#4E4E4E"/>
	</linearGradient>
	<polygon fill="url(#SVGID_46_)" stroke="#FFFFFF" points="-170.304,61.283 -170.304,57.988 -221.182,57.988 -221.182,61.283 
		-225.633,61.283 -225.633,68.278 -165.854,68.278 -165.854,61.283 	"/>
	<linearGradient id="SVGID_47_" gradientUnits="userSpaceOnUse" x1="-196.0352" y1="57.626" x2="-196.0352" y2="33.1045">
		<stop  offset="0" style="stop-color:#1C1C1C"/>
		<stop  offset="0.499" style="stop-color:#1C1C1C"/>
		<stop  offset="1" style="stop-color:#4E4E4E"/>
	</linearGradient>
	<polygon fill="url(#SVGID_47_)" points="-168.168,33.104 -223.902,33.104 -223.902,36.077 -219.072,36.077 -219.072,57.626 
		-214.613,57.626 -214.613,36.077 -208.667,36.077 -208.667,57.626 -204.209,57.626 -204.209,36.077 -198.264,36.077 
		-198.264,57.626 -193.806,57.626 -193.806,36.077 -187.861,36.077 -187.861,57.626 -183.402,57.626 -183.402,36.077 
		-177.458,36.077 -177.458,57.626 -172.999,57.626 -172.999,36.077 -168.168,36.077 	"/>
	<linearGradient id="SVGID_48_" gradientUnits="userSpaceOnUse" x1="-195.6602" y1="62.7051" x2="-195.6602" y2="59.6094">
		<stop  offset="0.2473" style="stop-color:#F7941D"/>
		<stop  offset="0.7143" style="stop-color:#F8BB49"/>
	</linearGradient>
	<rect x="-218.82" y="59.609" fill="url(#SVGID_48_)" width="46.319" height="3.096"/>
</g>
</svg>
