<?xml version="1.0" encoding="utf-8"?>
<!-- Generator: Adobe Illustrator 15.0.2, SVG Export Plug-In . SVG Version: 6.00 Build 0)  -->
<!DOCTYPE svg PUBLIC "-//W3C//DTD SVG 1.1//EN" "http://www.w3.org/Graphics/SVG/1.1/DTD/svg11.dtd">
<svg version="1.1" id="Livello_1" xmlns="http://www.w3.org/2000/svg" xmlns:xlink="http://www.w3.org/1999/xlink" x="0px" y="0px"
	 width="208px" height="70.667px" viewBox="0 0 208 70.667" enable-background="new 0 0 208 70.667" xml:space="preserve">
<g>
	<path fill-rule="evenodd" clip-rule="evenodd" fill="#D0D2D3" d="M31.882,12.822C20.757,12.828,11.323,20.086,8.06,30.124
		l23.704,7.578L31.882,12.822z"/>
	<path fill-rule="evenodd" clip-rule="evenodd" fill="#D0D2D3" d="M31.897,12.822l0.118,24.88l23.705-7.578
		C52.456,20.086,43.023,12.828,31.897,12.822z"/>
	<path fill-rule="evenodd" clip-rule="evenodd" fill="#0088CC" d="M61.858,32.041l-23.631,7.801l14.529,20.199
		c6.253-4.559,10.32-11.937,10.32-20.266C63.076,37.077,62.648,34.476,61.858,32.041z"/>
	<path fill-rule="evenodd" clip-rule="evenodd" fill="#D0D2D3" d="M46.61,58.147l-14.72-20.056L17.17,58.147
		c4.132,3.008,9.22,4.78,14.72,4.78C37.391,62.928,42.477,61.155,46.61,58.147z"/>
	<path fill-rule="evenodd" clip-rule="evenodd" fill="#D0D2D3" d="M17.159,58.139l14.527-20.196l-23.63-7.805
		c-0.792,2.438-1.217,5.039-1.217,7.737C6.839,46.204,10.904,53.586,17.159,58.139z"/>
</g>
<g>
	<path fill-rule="evenodd" clip-rule="evenodd" fill="#D0D2D3" d="M174.927,12.823c-13.831,0.002-25.047,11.219-25.047,25.05
		c0,4.562,1.222,8.837,3.351,12.523l21.587-12.589L174.927,12.823z"/>
	<path fill-rule="evenodd" clip-rule="evenodd" fill="#0088CC" d="M174.938,12.823l0.109,24.984l21.587,12.589
		c2.131-3.687,3.349-7.962,3.349-12.523C199.983,24.042,188.771,12.825,174.938,12.823z"/>
	<path fill-rule="evenodd" clip-rule="evenodd" fill="#D0D2D3" d="M196.63,50.406l-21.698-12.399l-21.694,12.399
		c4.333,7.484,12.428,12.52,21.694,12.52C184.2,62.926,192.295,57.891,196.63,50.406z"/>
</g>
<g>
	<path fill-rule="evenodd" clip-rule="evenodd" fill="#F1F1F2" d="M105.518,20.093l0.038-8.222
		c-14.351,0.005-25.99,11.645-25.995,25.997l8.225-0.042C87.883,28.078,95.768,20.195,105.518,20.093z"/>
	<path fill-rule="evenodd" clip-rule="evenodd" fill="#0088CC" d="M105.572,11.871l0.041,8.222c0.031,0,0.059-0.001,0.09-0.001
		c9.834,0,17.817,7.925,17.92,17.736l7.945,0.04C131.563,23.516,119.927,11.876,105.572,11.871z"/>
	<path fill-rule="evenodd" clip-rule="evenodd" fill="#404041" d="M131.568,37.882l-7.945,0.04c0,0.03,0.002,0.061,0.002,0.091
		c0,9.896-8.026,17.92-17.922,17.92c-0.031,0-0.062,0-0.09,0l-0.041,7.945C119.927,63.874,131.563,52.234,131.568,37.882z"/>
	<path fill-rule="evenodd" clip-rule="evenodd" fill="#929497" d="M105.556,63.878l-0.038-7.945
		c-9.811-0.103-17.733-8.085-17.733-17.92c0-0.03,0-0.059,0-0.091l-8.224-0.04C79.565,52.234,91.205,63.874,105.556,63.878z"/>
</g>
</svg>
