<?xml version="1.0" encoding="utf-8"?>
<!-- Generator: Adobe Illustrator 15.0.2, SVG Export Plug-In . SVG Version: 6.00 Build 0)  -->
<!DOCTYPE svg PUBLIC "-//W3C//DTD SVG 1.1//EN" "http://www.w3.org/Graphics/SVG/1.1/DTD/svg11.dtd">
<svg version="1.1" id="Layer_1" xmlns="http://www.w3.org/2000/svg" xmlns:xlink="http://www.w3.org/1999/xlink" x="0px" y="0px"
	 width="245px" height="117px" viewBox="-88.001 -24.861 245 117" enable-background="new -88.001 -24.861 245 117"
	 xml:space="preserve">
<g display="none">
	<circle display="inline" fill="#0088CC" stroke="#FFFFFF" cx="33.7" cy="34.34" r="31.884"/>
	
		<linearGradient id="SVGID_1_" gradientUnits="userSpaceOnUse" x1="33.7007" y1="9.9685" x2="33.7007" y2="59.907" gradientTransform="matrix(1 0 0 -1 0 69.2778)">
		<stop  offset="0" style="stop-color:#1C1C1C"/>
		<stop  offset="0.499" style="stop-color:#1C1C1C"/>
		<stop  offset="1" style="stop-color:#4E4E4E"/>
	</linearGradient>
	<circle display="inline" fill="url(#SVGID_1_)" stroke="#FFFFFF" cx="33.701" cy="34.34" r="24.97"/>
	<circle display="inline" fill="#FFFFFF" cx="33.7" cy="13.692" r="1.632"/>
	<circle display="inline" fill="#FFFFFF" cx="33.7" cy="55.18" r="1.632"/>
	<circle display="inline" fill="#FFFFFF" cx="54.293" cy="34.435" r="1.633"/>
	<circle display="inline" fill="#FFFFFF" cx="33.702" cy="34.435" r="1.633"/>
	<circle display="inline" fill="#FFFFFF" cx="12.805" cy="34.435" r="1.633"/>
	<polygon display="inline" fill="#FFFFFF" points="32.989,33.347 49.188,18.559 34.457,35.227 	"/>
	<polygon display="inline" fill="#FFFFFF" points="34.893,33.283 23.081,20.8 32.49,35.3 	"/>
</g>
<g>
	<path fill-rule="evenodd" clip-rule="evenodd" fill="#333333" d="M-41.944,63.58c-1.345-0.662-3.281-2.234-6.178-2.76
		c0.708-0.842,1.278-2.141,1.893-3.668c0.296-0.936,0.227-1.688,0.227-2.758c0-0.822,0.183-2.074-0.044-2.804
		c-0.639-2.394-2.235-3.056-4.127-3.056c-0.935,0-1.776,0.16-2.484,0.57c0.274,0.502,0.501,1.072,0.686,1.756
		c0.294,1.002,0.067,2.734,0.067,3.829c0,1.481,0.068,2.507-0.318,3.761l-0.617,1.527c0.183,0.318,0.388,0.615,0.617,0.842
		c-0.388,0.071-0.753,0.16-1.118,0.276c-0.432,0.935-0.888,1.754-1.413,2.368c3.875,0.708,6.473,2.871,8.252,3.762
		c0.957,0.457,1.662,0.936,2.188,1.367h3.078c1.254,0,2.028-1.002,2.028-1.914v-0.455C-39.208,66.225-39.231,64.834-41.944,63.58z
		 M-50.149,67.227c-1.778-0.891-4.379-3.054-8.252-3.762c0.957-1.14,1.732-2.938,2.529-5.014c0.39-1.254,0.32-2.279,0.32-3.761
		c0-1.095,0.227-2.827-0.069-3.829c-0.844-3.26-2.984-4.148-5.516-4.148c-2.553,0-4.696,0.889-5.538,4.148
		c-0.252,1.002-0.069,2.758-0.069,3.829c0,1.481-0.068,2.507,0.41,3.761c0.752,2.076,1.482,3.896,2.462,5.014
		c-3.829,0.752-6.451,2.896-8.16,3.762c-3.646,1.709-3.646,3.624-3.646,3.624v0.708c0,1.253,1.345,2.506,2.667,2.506h23.819
		c1.663,0,2.689-1.366,2.689-2.621v-0.593C-46.502,70.851-46.549,68.936-50.149,67.227z"/>
</g>
<g>
	<path fill-rule="evenodd" clip-rule="evenodd" fill="#333333" d="M138.65,0.199c-1.345-0.662-3.281-2.234-6.178-2.76
		c0.708-0.842,1.278-2.141,1.893-3.668c0.296-0.936,0.227-1.688,0.227-2.758c0-0.822,0.183-2.074-0.044-2.804
		c-0.639-2.394-2.235-3.056-4.127-3.056c-0.935,0-1.776,0.16-2.484,0.57c0.274,0.502,0.501,1.072,0.686,1.756
		c0.294,1.002,0.067,2.734,0.067,3.829c0,1.481,0.068,2.507-0.318,3.761l-0.617,1.527c0.183,0.318,0.388,0.615,0.617,0.842
		c-0.388,0.071-0.753,0.16-1.118,0.276c-0.432,0.935-0.888,1.754-1.413,2.368c3.875,0.708,6.473,2.871,8.252,3.762
		c0.957,0.457,1.662,0.936,2.188,1.367h3.078c1.254,0,2.028-1.002,2.028-1.914V2.844C141.385,2.844,141.363,1.453,138.65,0.199z
		 M130.445,3.845c-1.778-0.891-4.379-3.054-8.252-3.762c0.957-1.14,1.732-2.938,2.529-5.014c0.39-1.254,0.32-2.279,0.32-3.761
		c0-1.095,0.227-2.827-0.069-3.829c-0.844-3.26-2.984-4.148-5.516-4.148c-2.553,0-4.696,0.889-5.538,4.148
		c-0.252,1.002-0.069,2.758-0.069,3.829c0,1.481-0.068,2.507,0.41,3.761c0.752,2.076,1.482,3.896,2.462,5.014
		c-3.829,0.752-6.451,2.896-8.16,3.762c-3.646,1.709-3.646,3.624-3.646,3.624v0.708c0,1.253,1.345,2.506,2.667,2.506h23.819
		c1.663,0,2.689-1.366,2.689-2.621V7.469C134.091,7.469,134.044,5.554,130.445,3.845z"/>
</g>
<g>
	<g>
		<g>
			
				<radialGradient id="SVGID_2_" cx="-5244.2803" cy="9.9465" r="49.2136" gradientTransform="matrix(-1 0 0 1 -5210.7627 0)" gradientUnits="userSpaceOnUse">
				<stop  offset="0.3636" style="stop-color:#8DDFFF"/>
				<stop  offset="0.4005" style="stop-color:#9AE3FF"/>
				<stop  offset="0.5208" style="stop-color:#BEEDFF"/>
				<stop  offset="0.6419" style="stop-color:#DAF5FF"/>
				<stop  offset="0.7624" style="stop-color:#EFFAFF"/>
				<stop  offset="0.882" style="stop-color:#FBFEFF"/>
				<stop  offset="1" style="stop-color:#FFFFFF"/>
			</radialGradient>
			<path fill="url(#SVGID_2_)" d="M36.523,59.201c0.002-0.006-0.605-0.02-1.745-0.143c-1.138-0.13-2.816-0.374-4.889-0.99
				c-2.064-0.617-4.529-1.619-7.072-3.271c-2.537-1.648-5.153-3.963-7.335-7.035c-2.179-3.059-3.906-6.886-4.586-11.199
				c-0.684-4.297-0.329-9.078,1.417-13.597c1.727-4.513,4.862-8.747,9.114-11.792C25.656,8.113,30.99,6.3,36.523,6.317
				c5.533-0.017,10.869,1.796,15.098,4.857c4.252,3.045,7.387,7.279,9.113,11.792c1.748,4.519,2.102,9.3,1.418,13.597
				c-0.682,4.313-2.408,8.141-4.588,11.199c-2.18,3.072-4.797,5.387-7.334,7.035c-2.543,1.652-5.008,2.654-7.072,3.271
				c-2.072,0.616-3.75,0.86-4.889,0.99C37.129,59.182,36.523,59.196,36.523,59.201c0-0.006,0.604,0.045,1.758,0.031
				c1.15-0.021,2.863-0.107,5.03-0.553c2.16-0.445,4.784-1.26,7.575-2.783c2.781-1.518,5.73-3.762,8.288-6.908
				c2.552-3.129,4.695-7.188,5.694-11.918c1.003-4.707,0.865-10.068-0.925-15.27c-1.768-5.185-5.205-10.145-10.03-13.748
				c-2.403-1.802-5.139-3.264-8.088-4.26c-2.949-0.998-6.109-1.523-9.303-1.523c-3.192,0-6.351,0.525-9.299,1.523
				c-2.951,0.996-5.687,2.458-8.091,4.26c-4.824,3.604-8.262,8.563-10.029,13.748c-1.79,5.201-1.928,10.562-0.925,15.27
				c1,4.729,3.143,8.789,5.695,11.918c2.559,3.146,5.507,5.391,8.288,6.908c2.789,1.523,5.414,2.338,7.575,2.783
				c2.167,0.445,3.878,0.531,5.031,0.553C35.92,59.246,36.523,59.196,36.523,59.201z"/>
		</g>
		<g>
			
				<radialGradient id="SVGID_3_" cx="-5244.2808" cy="9.947" r="49.213" gradientTransform="matrix(-1 0 0 1 -5210.7627 0)" gradientUnits="userSpaceOnUse">
				<stop  offset="0.3636" style="stop-color:#8DDFFF"/>
				<stop  offset="0.3933" style="stop-color:#9AE3FF"/>
				<stop  offset="0.4902" style="stop-color:#BEEDFF"/>
				<stop  offset="0.5877" style="stop-color:#DAF5FF"/>
				<stop  offset="0.6847" style="stop-color:#EFFAFF"/>
				<stop  offset="0.781" style="stop-color:#FBFEFF"/>
				<stop  offset="0.876" style="stop-color:#FFFFFF"/>
			</radialGradient>
			<path fill="url(#SVGID_3_)" d="M36.523,51.77c0-0.004-0.441-0.023-1.27-0.129c-0.83-0.107-2.049-0.311-3.547-0.781
				c-1.494-0.475-3.269-1.227-5.09-2.451c-1.818-1.219-3.681-2.918-5.221-5.146c-1.54-2.221-2.74-4.982-3.192-8.071
				c-0.458-3.079-0.17-6.487,1.097-9.69c1.256-3.199,3.5-6.19,6.524-8.335c3.007-2.157,6.783-3.427,10.699-3.417
				c3.919-0.01,7.693,1.26,10.701,3.417c3.023,2.145,5.268,5.136,6.523,8.335c1.267,3.203,1.555,6.611,1.098,9.69
				c-0.453,3.089-1.653,5.851-3.193,8.071c-1.54,2.229-3.402,3.928-5.221,5.146c-1.821,1.225-3.597,1.977-5.09,2.451
				c-1.498,0.471-2.718,0.674-3.545,0.781C36.966,51.746,36.523,51.766,36.523,51.77c0-0.004,0.439,0.039,1.285,0.045
				c0.839,0.002,2.093-0.043,3.688-0.342c1.588-0.303,3.523-0.871,5.592-1.965c2.062-1.088,4.256-2.715,6.172-5.021
				c1.914-2.291,3.531-5.283,4.305-8.789c0.775-3.487,0.702-7.475-0.609-11.361c-1.295-3.871-3.84-7.59-7.438-10.291
				c-1.792-1.351-3.832-2.453-6.038-3.199c-2.205-0.748-4.566-1.145-6.955-1.145c-2.387,0-4.749,0.396-6.953,1.145
				c-2.207,0.746-4.247,1.849-6.039,3.199c-3.599,2.701-6.143,6.42-7.438,10.291c-1.312,3.887-1.383,7.874-0.609,11.361
				c0.773,3.506,2.391,6.498,4.305,8.789c1.917,2.307,4.11,3.934,6.174,5.021c2.067,1.094,4.004,1.662,5.59,1.965
				c1.594,0.299,2.848,0.344,3.689,0.342C36.083,51.809,36.523,51.766,36.523,51.77z"/>
		</g>
		<g>
			
				<radialGradient id="SVGID_4_" cx="-5244.2808" cy="10.448" r="49.2135" gradientTransform="matrix(-1 0 0 1 -5210.7627 0)" gradientUnits="userSpaceOnUse">
				<stop  offset="0.3636" style="stop-color:#8DDFFF"/>
				<stop  offset="0.3865" style="stop-color:#9AE3FF"/>
				<stop  offset="0.4612" style="stop-color:#BEEDFF"/>
				<stop  offset="0.5364" style="stop-color:#DAF5FF"/>
				<stop  offset="0.6112" style="stop-color:#EFFAFF"/>
				<stop  offset="0.6854" style="stop-color:#FBFEFF"/>
				<stop  offset="0.7587" style="stop-color:#FFFFFF"/>
			</radialGradient>
			<path fill="url(#SVGID_4_)" d="M36.523,45.178c0-0.002-0.285-0.026-0.818-0.113c-0.532-0.088-1.313-0.249-2.265-0.583
				c-0.948-0.336-2.064-0.856-3.198-1.669c-1.13-0.811-2.273-1.92-3.201-3.347c-0.929-1.42-1.63-3.163-1.866-5.083
				c-0.239-1.916-0.015-4.016,0.796-5.963c0.805-1.947,2.199-3.75,4.05-5.036c1.844-1.294,4.127-2.046,6.503-2.042
				c2.377-0.004,4.66,0.748,6.504,2.042c1.852,1.286,3.246,3.089,4.051,5.036c0.811,1.947,1.035,4.047,0.796,5.963
				c-0.236,1.92-0.938,3.663-1.866,5.083c-0.928,1.427-2.07,2.536-3.201,3.347c-1.133,0.812-2.251,1.333-3.198,1.669
				c-0.952,0.334-1.733,0.495-2.265,0.583C36.81,45.152,36.523,45.176,36.523,45.178c0-0.002,0.284,0.037,0.831,0.061
				c0.546,0.02,1.362,0.019,2.407-0.145c1.043-0.164,2.32-0.498,3.7-1.182c1.375-0.68,2.851-1.718,4.153-3.22
				c1.304-1.493,2.422-3.466,2.979-5.802c0.556-2.326,0.547-5.004-0.307-7.635c-0.844-2.619-2.541-5.148-4.967-6.991
				c-2.403-1.854-5.553-2.981-8.797-2.97c-3.242-0.012-6.392,1.115-8.795,2.97c-2.425,1.843-4.123,4.372-4.966,6.991
				c-0.854,2.631-0.863,5.309-0.305,7.635c0.554,2.336,1.673,4.309,2.975,5.802c1.304,1.502,2.781,2.54,4.155,3.22
				c1.38,0.684,2.657,1.018,3.7,1.182c1.045,0.163,1.861,0.164,2.407,0.145C36.24,45.215,36.523,45.176,36.523,45.178z"/>
		</g>
	</g>
	<g>
		<g>
			<g>
				<linearGradient id="SVGID_5_" gradientUnits="userSpaceOnUse" x1="36.519" y1="82.7092" x2="36.5863" y2="77.7309">
					<stop  offset="0" style="stop-color:#D0D2D3"/>
					<stop  offset="0.1099" style="stop-color:#D7D8D9"/>
					<stop  offset="0.6771" style="stop-color:#F4F4F5"/>
					<stop  offset="1" style="stop-color:#FFFFFF"/>
				</linearGradient>
				<polygon fill="url(#SVGID_5_)" points="57.876,81.141 36.536,81.141 15.205,81.141 36.396,75.414 				"/>
			</g>
		</g>
	</g>
	<path fill="#B2B2B2" d="M32.238,54.01"/>
	<g>
		<path fill="#B2B2B2" d="M35.86,64.955"/>
	</g>
	<path fill="#B2B2B2" d="M36.559,61.932l-0.013-0.012V35.83h-1.37h-0.346c-1.745,17.404-7.218,28.379-11.507,34.574
		c-4.636,6.699-8.913,9.328-8.954,9.352c0,0-0.605,0.479-0.103,0.977c0.599,0.595,1.259,0.359,1.259,0.359l13.667-6.561l5.984,6.609
		h1.37v-0.738V61.944L36.559,61.932z M28.485,65.633c0.561-1.055,1.098-2.139,1.608-3.254l0.845,1.459L28.485,65.633z
		 M31.837,65.389l2.711,4.678l-4.77,2.291l-2.989-3.271L31.837,65.389z M31.064,60.156c0.067-0.16,0.134-0.32,0.201-0.48
		l2.424-2.789l1.309,3.979l-2.474,1.812L31.064,60.156z M32.51,56.332c0.172-0.498,0.346-0.991,0.504-1.498l0.219,0.666
		L32.51,56.332z M35.176,57.108l-0.462-1.402l0.462-0.531V57.108z M35.176,45.807v7.457l-0.916,1.057l-0.582-1.766
		C34.268,50.383,34.756,48.125,35.176,45.807z M20.613,76.758c1.346-1.412,2.864-3.208,4.431-5.455
		c0.177-0.254,0.347-0.52,0.52-0.779l2.435,2.688L20.613,76.758z M30.982,73.674l4.194-2.014v6.606L30.982,73.674z M35.176,67.254
		l-1.753-3.025l1.753-1.284V67.254z"/>
	<path fill="#7C7C7C" d="M40.844,54.01"/>
	<g>
		<path fill="#7C7C7C" d="M37.222,64.955"/>
	</g>
	<path fill="#7C7C7C" d="M58.712,79.756c-0.039-0.023-4.318-2.652-8.955-9.352c-4.287-6.195-9.759-17.17-11.506-34.574h-0.346
		h-1.369v26.09l-0.014,0.012l0.014,0.012v18.459v0.738h1.369l5.983-6.609l13.667,6.561c0,0,0.662,0.235,1.26-0.359
		C59.32,80.235,58.712,79.756,58.712,79.756z M37.906,55.174l0.461,0.531l-0.461,1.4V55.174z M39.394,56.887l2.423,2.789
		c0.066,0.16,0.134,0.32,0.2,0.48l-1.459,2.521l-2.473-1.812L39.394,56.887z M39.849,55.5l0.218-0.666
		c0.16,0.507,0.333,1,0.505,1.498L39.849,55.5z M42.989,62.379c0.51,1.115,1.048,2.199,1.607,3.254l-2.453-1.795L42.989,62.379z
		 M46.293,69.086l-2.989,3.271l-4.771-2.291l2.711-4.678L46.293,69.086z M39.404,52.555l-0.58,1.766l-0.918-1.055v-7.457
		C38.326,48.127,38.814,50.383,39.404,52.555z M37.906,62.945l1.752,1.284l-1.752,3.025V62.945z M37.906,78.266V71.66l4.196,2.014
		L37.906,78.266z M47.518,70.524c0.175,0.26,0.343,0.525,0.521,0.779c1.566,2.247,3.083,4.043,4.429,5.455l-7.385-3.546
		L47.518,70.524z"/>
	<g>
		<radialGradient id="SVGID_6_" cx="37.1079" cy="28.2439" r="7.891" gradientUnits="userSpaceOnUse">
			<stop  offset="0.5" style="stop-color:#0099E6"/>
			<stop  offset="0.8681" style="stop-color:#005FB3"/>
			<stop  offset="0.8958" style="stop-color:#005FAE"/>
			<stop  offset="0.9294" style="stop-color:#005F9F"/>
			<stop  offset="0.9659" style="stop-color:#005F87"/>
			<stop  offset="1" style="stop-color:#005F69"/>
		</radialGradient>
		<circle fill="url(#SVGID_6_)" cx="36.573" cy="30.793" r="5.415"/>
		<linearGradient id="SVGID_7_" gradientUnits="userSpaceOnUse" x1="35.6021" y1="25.9397" x2="37.137" y2="31.67">
			<stop  offset="0" style="stop-color:#9BDAFF"/>
			<stop  offset="0.7582" style="stop-color:#0799E8"/>
		</linearGradient>
		<path fill="url(#SVGID_7_)" d="M36.611,25.626c-0.357,0-0.723,0.034-1.086,0.106c-2.208,0.441-3.638,2.101-3.194,3.709
			c0.369,1.34,1.921,2.219,3.708,2.219c0.356,0,0.722-0.034,1.087-0.105c2.205-0.441,3.637-2.102,3.195-3.709
			C39.951,26.504,38.398,25.626,36.611,25.626L36.611,25.626z"/>
	</g>
</g>
<g>
	<path fill-rule="evenodd" clip-rule="evenodd" fill="#333333" d="M-45.419-1.23l0.324-0.632l-0.324,0.326V-1.23z M-43.472-10.838
		c0-0.505-0.035-0.974-0.127-1.371C-43.581-11.721-43.526-11.271-43.472-10.838z M-43.599-12.208l-0.018-0.54h-0.145l0.145,0.504
		L-43.599-12.208z M-43.616-12.244l-0.145-0.504c-0.901-2.758-2.866-3.569-5.173-3.605h-0.089h-0.036
		c-2.379,0-4.418,0.793-5.337,3.605l-0.035,0.125l-0.109,0.378c-0.125,0.505-0.143,1.19-0.125,1.894
		c-0.812,4.055-3.371,6.615-3.371,6.615h3.946c0.219,0.612,0.542,1.172,0.938,1.658c0.162,0.361,0.343,0.722,0.522,1.028v0.919
		c0,0-0.505,0.378-1.279,0.937c-2.651,0.956-4.579,2.434-5.93,3.119c-3.605,1.693-3.605,3.57-3.605,3.57v0.72
		c0,1.227,1.334,2.47,2.631,2.47h23.54c1.658,0,2.669-1.352,2.669-2.577V7.494c0,0-0.036-1.876-3.605-3.57
		c-1.406-0.704-3.299-2.181-5.93-3.119c-0.776-0.558-1.28-0.937-1.28-0.937V-1.23v-0.306l0.324-0.326
		c0.505-0.523,0.884-1.17,1.137-1.875h3.946c0,0-2.775-2.776-3.46-7.102c-0.055-0.433-0.109-0.884-0.127-1.371L-43.616-12.244z
		 M-54.396-12.748h-0.035v0.125L-54.396-12.748z"/>
</g>
<g>
	<path fill-rule="evenodd" clip-rule="evenodd" fill="#333333" d="M142.824,67.219c-1.79-0.896-4.383-3.05-8.252-3.763
		c0.949-1.147,1.716-2.938,2.52-5.02c0.401-1.26,0.329-2.301,0.329-3.761c0-1.114,0.219-2.829-0.073-3.834
		c-0.841-3.268-2.994-4.163-5.514-4.163c-2.556,0-4.71,0.896-5.552,4.163c-0.255,1.005-0.07,2.758-0.07,3.834
		c0,1.46-0.073,2.501,0.401,3.761c0.766,2.082,1.495,3.907,2.482,5.02c-3.835,0.749-6.464,2.902-8.18,3.763
		c-3.651,1.714-3.651,3.616-3.651,3.616v0.729c0,1.242,1.353,2.501,2.665,2.501h23.843c1.681,0,2.703-1.369,2.703-2.609v-0.62
		C146.475,70.835,146.44,68.933,142.824,67.219z"/>
</g>
<g>
	<circle fill="#A0A0A0" cx="71.249" cy="64.955" r="3.625"/>
	<circle fill="#A0A0A0" cx="84.249" cy="64.955" r="2.9"/>
	<circle fill="#A0A0A0" cx="97.249" cy="64.955" r="2.32"/>
	<circle fill="#A0A0A0" cx="110.249" cy="64.955" r="1.856"/>
</g>
<g>
	<circle fill="#A0A0A0" cx="-1.819" cy="13.328" r="3.625"/>
	<circle fill="#A0A0A0" cx="-13.577" cy="7.782" r="2.9"/>
	<circle fill="#A0A0A0" cx="-25.334" cy="2.236" r="2.32"/>
</g>
<g>
	<circle fill="#A0A0A0" cx="9.462" cy="63.602" r="3.625"/>
	<circle fill="#A0A0A0" cx="-3.529" cy="63.132" r="2.9"/>
	<circle fill="#A0A0A0" cx="-16.521" cy="62.661" r="2.32"/>
	<circle fill="#A0A0A0" cx="-29.512" cy="62.191" r="1.856"/>
</g>
<g>
	<circle fill="#A0A0A0" cx="72.01" cy="15.33" r="3.625"/>
	<circle fill="#A0A0A0" cx="83.736" cy="9.717" r="2.9"/>
	<circle fill="#A0A0A0" cx="95.462" cy="4.104" r="2.32"/>
</g>
</svg>
