<?xml version="1.0" encoding="utf-8"?>
<!-- Generator: Adobe Illustrator 15.0.2, SVG Export Plug-In . SVG Version: 6.00 Build 0)  -->
<!DOCTYPE svg PUBLIC "-//W3C//DTD SVG 1.1//EN" "http://www.w3.org/Graphics/SVG/1.1/DTD/svg11.dtd">
<svg version="1.1" id="Layer_1" xmlns="http://www.w3.org/2000/svg" xmlns:xlink="http://www.w3.org/1999/xlink" x="0px" y="0px"
	 width="96.667px" height="67.667px" viewBox="1.333 16.167 96.667 67.667" enable-background="new 1.333 16.167 96.667 67.667"
	 xml:space="preserve">
<g>
	<g>
		<g>
			<path fill="#0088CC" d="M5.041,17.463H83.29c1.104,0,1.996,0.893,1.996,1.996v24.753H63.419c-1.762,0-3.192,1.433-3.192,3.193
				v24.353h-8.444l3.474,9.027c0,0.748-0.605,1.354-1.354,1.354H34.43c-0.746,0-1.353-0.604-1.353-1.354l3.473-9.027H5.041
				c-1.103,0-1.995-0.895-1.995-1.996V19.458C3.046,18.356,3.938,17.463,5.041,17.463z"/>
		</g>
		<g>
			<path fill="#333333" d="M84.578,80.541c0,1.104,0.895,1.997,1.996,1.997h8.384c1.104,0,1.996-0.896,1.996-1.997V62.177
				c0-1.102-0.894-1.997-1.996-1.997h-8.384c-1.104,0-1.996,0.896-1.996,1.997V80.541z"/>
			<g>
				<path fill="#A0A0A0" d="M83.05,81.639c-0.11-0.354-0.168-0.726-0.168-1.098V62.177c0-2.036,1.656-3.692,3.692-3.692h3.492
					V47.405c0-0.825-0.672-1.497-1.496-1.497H63.419c-0.823,0-1.497,0.671-1.497,1.497v32.737c0,0.824,0.674,1.496,1.497,1.496
					H83.05z"/>
			</g>
		</g>
	</g>
</g>
</svg>
