<?xml version="1.0" encoding="utf-8"?>
<!-- Generator: Adobe Illustrator 15.0.2, SVG Export Plug-In . SVG Version: 6.00 Build 0)  -->
<!DOCTYPE svg PUBLIC "-//W3C//DTD SVG 1.1//EN" "http://www.w3.org/Graphics/SVG/1.1/DTD/svg11.dtd">
<svg version="1.1" id="Isolation_Mode" xmlns="http://www.w3.org/2000/svg" xmlns:xlink="http://www.w3.org/1999/xlink" x="0px"
	 y="0px" width="168px" height="66.25px" viewBox="8.5 12.5 168 66.25" enable-background="new 8.5 12.5 168 66.25"
	 xml:space="preserve">
<g>
	<g>
		<path fill="#0B88CA" d="M168.598,26.678l-11.644-0.055c-4.31,0.113-5.897,3.59-5.897,4.797v0.17v0.73v16.264
			c0,1.064,0.854,1.922,1.914,1.922c1.062,0,1.922-0.857,1.922-1.922V34.516h1.641v13.482c0,0.189,0.015,0.369,0.045,0.539v24.086
			c0,1.547,1.197,2.805,2.675,2.805s2.673-1.258,2.673-2.805V51.369h1.326v21.254c0,1.547,1.191,2.805,2.676,2.805
			c1.477,0,2.67-1.258,2.67-2.805V47.998v-0.15V34.516h1.451v14.068c0,1.064,0.924,1.922,2.064,1.922
			c1.134,0,2.058-0.857,2.058-1.922V32.32v-0.73v-0.391C174.17,29.73,172.249,26.678,168.598,26.678z"/>
		<path fill="#0B88CA" d="M162.613,25.785c2.55,0,4.617-2.061,4.617-4.617c0-2.549-2.067-4.615-4.617-4.615
			c-2.549,0-4.617,2.066-4.617,4.615C157.996,23.725,160.064,25.785,162.613,25.785z"/>
	</g>
	<path fill="#D3D3D7" d="M29.798,26.678l-11.643-0.055c-4.31,0.113-5.898,3.59-5.898,4.797v0.17v0.73v16.264
		c0,1.064,0.854,1.922,1.915,1.922s1.921-0.857,1.921-1.922V34.516h1.641v13.482c0,0.189,0.014,0.369,0.045,0.539v24.086
		c0,1.547,1.195,2.805,2.674,2.805c1.477,0,2.674-1.258,2.674-2.805V51.369h1.325v21.254c0,1.547,1.193,2.805,2.677,2.805
		c1.475,0,2.67-1.258,2.67-2.805V47.998v-0.15V34.516h1.45v14.068c0,1.064,0.924,1.922,2.065,1.922c1.134,0,2.057-0.857,2.057-1.922
		V32.32v-0.73v-0.391C35.371,29.73,33.45,26.678,29.798,26.678z"/>
	<path fill="#D3D3D7" d="M23.814,25.785c2.55,0,4.617-2.061,4.617-4.617c0-2.549-2.067-4.615-4.617-4.615s-4.618,2.066-4.618,4.615
		C19.196,23.725,21.264,25.785,23.814,25.785z"/>
	<path fill="#D3D3D7" d="M81.523,48.584c0,1.064,0.856,1.922,1.917,1.922c1.062,0,1.921-0.857,1.921-1.922v-2.592h-3.838V48.584z"/>
	<path fill="#0B88CA" d="M87,47.998c0,0.189,0.015,0.369,0.047,0.539v24.086c0,1.547,1.196,2.805,2.674,2.805
		c1.477,0,2.675-1.258,2.675-2.805V51.369h1.325v21.254c0,1.547,1.191,2.805,2.676,2.805c1.476,0,2.668-1.258,2.668-2.805V47.998
		v-0.15v-1.855H87V47.998z"/>
	<path fill="#D3D3D7" d="M100.516,45.992v2.592c0,1.064,0.922,1.922,2.064,1.922c1.135,0,2.057-0.857,2.057-1.922v-2.592H100.516z"
		/>
	<path fill="#D3D3D7" d="M104.637,32.32v-0.73v-0.391c0-1.469-1.921-4.521-5.572-4.521l-11.643-0.055
		c-4.31,0.113-5.899,3.59-5.899,4.797v0.17v0.73v13.672h3.838V34.516H87v11.477h12.064V34.516h1.451v11.477h4.121V32.32z"/>
	<path fill="#D3D3D7" d="M93.08,25.785c2.55,0,4.617-2.061,4.617-4.617c0-2.549-2.067-4.615-4.617-4.615
		c-2.55,0-4.616,2.066-4.616,4.615C88.463,23.725,90.53,25.785,93.08,25.785z"/>
	<path fill="#D3D3D7" d="M133.832,26.678l-11.643-0.055c-3.635,0.098-5.328,2.58-5.772,4.08h22.923
		C138.99,29.137,137.111,26.678,133.832,26.678z"/>
	<path fill="#0B88CA" d="M116.417,30.703c-0.083,0.277-0.127,0.529-0.127,0.717v0.17v0.73v16.264c0,1.064,0.854,1.922,1.916,1.922
		s1.921-0.857,1.921-1.922V34.516h1.641v13.482c0,0.189,0.015,0.369,0.045,0.539v24.086c0,1.547,1.197,2.805,2.674,2.805
		c1.478,0,2.676-1.258,2.676-2.805V51.369h1.324v21.254c0,1.547,1.193,2.805,2.677,2.805c1.476,0,2.67-1.258,2.67-2.805V47.998
		v-0.15V34.516h1.45v14.068c0,1.064,0.924,1.922,2.064,1.922c1.135,0,2.057-0.857,2.057-1.922V32.32v-0.73v-0.391
		c0-0.15-0.023-0.32-0.063-0.496H116.417z"/>
	<path fill="#D3D3D7" d="M127.848,25.785c2.549,0,4.616-2.061,4.616-4.617c0-2.549-2.067-4.615-4.616-4.615
		c-2.552,0-4.619,2.066-4.619,4.615C123.229,23.725,125.296,25.785,127.848,25.785z"/>
	<rect x="57.627" y="51.369" fill="#D3D3D7" width="1.326" height="9.387"/>
	<path fill="#0B88CA" d="M52.279,72.623c0,1.547,1.197,2.805,2.676,2.805c1.477,0,2.673-1.258,2.673-2.805V60.756h-5.349V72.623z"/>
	<path fill="#0B88CA" d="M58.954,60.756v11.867c0,1.547,1.19,2.805,2.675,2.805c1.477,0,2.67-1.258,2.67-2.805V60.756H58.954z"/>
	<path fill="#D3D3D7" d="M64.298,47.998v-0.15V34.516h1.451v14.068c0,1.064,0.923,1.922,2.063,1.922
		c1.135,0,2.058-0.857,2.058-1.922V32.32v-0.73v-0.391c0-1.469-1.921-4.521-5.572-4.521l-11.643-0.055
		c-4.31,0.113-5.898,3.59-5.898,4.797v0.17v0.73v16.264c0,1.064,0.855,1.922,1.916,1.922c1.062,0,1.921-0.857,1.921-1.922V34.516
		h1.64v13.482c0,0.189,0.016,0.369,0.045,0.539v12.219h5.349v-9.387h1.326v9.387h5.345L64.298,47.998L64.298,47.998z"/>
	<path fill="#D3D3D7" d="M58.314,25.785c2.55,0,4.617-2.061,4.617-4.617c0-2.549-2.067-4.615-4.617-4.615s-4.616,2.066-4.616,4.615
		C53.698,23.725,55.764,25.785,58.314,25.785z"/>
</g>
</svg>
