<?xml version="1.0" encoding="utf-8"?>
<!-- Generator: Adobe Illustrator 15.0.2, SVG Export Plug-In . SVG Version: 6.00 Build 0)  -->
<!DOCTYPE svg PUBLIC "-//W3C//DTD SVG 1.1//EN" "http://www.w3.org/Graphics/SVG/1.1/DTD/svg11.dtd">
<svg version="1.1" id="Layer_1" xmlns="http://www.w3.org/2000/svg" xmlns:xlink="http://www.w3.org/1999/xlink" x="0px" y="0px"
	 width="81.539px" height="59.23px" viewBox="0 0 81.539 59.23" enable-background="new 0 0 81.539 59.23" xml:space="preserve">
<path fill="#FFFFFF" d="M31.044,31.371c0-1.562,1.267-2.829,2.829-2.829s2.829,1.267,2.829,2.829c0,1.562-1.266,2.829-2.828,2.829
	S31.044,32.933,31.044,31.371z M44.902,47.257c-1.226,1.434-3.012,2.256-4.897,2.256c-1.726,0-3.35-0.672-4.564-1.893
	c-0.695-0.697-0.692-1.827,0.003-2.521c0.697-0.695,1.827-0.691,2.524,0.003c1.137,1.139,3.175,1.064,4.226-0.163
	c0.64-0.747,1.768-0.836,2.515-0.194C45.456,45.382,45.543,46.508,44.902,47.257z M47.109,34.2c-1.562,0-2.83-1.268-2.83-2.829
	c0-1.562,1.269-2.829,2.83-2.829c1.562,0,2.828,1.267,2.828,2.829C49.938,32.933,48.672,34.2,47.109,34.2z"/>
<circle fill="#FFFFFF" cx="33.874" cy="31.371" r="2.829"/>
<circle fill="#FFFFFF" cx="47.109" cy="31.371" r="2.829"/>
<path fill="#FFFFFF" d="M18.366,34.9c-0.043,0.002-0.087-0.001-0.131,0.001c1.593,12.763,10.797,22.581,21.883,22.581
	c0.024,0,0.049-0.002,0.072-0.002C29.129,57.437,19.956,47.633,18.366,34.9z"/>
<path fill="#FFFFFF" d="M40.19,57.48c0.025,0,0.049,0.002,0.074,0.002c11.085,0,20.291-9.818,21.882-22.581
	c-0.043-0.002-0.088,0.001-0.131-0.001C60.426,47.633,51.251,57.437,40.19,57.48z"/>
<path fill="#FFFFFF" d="M42.191,44.939c-1.049,1.229-3.087,1.302-4.225,0.163c-0.697-0.694-1.827-0.698-2.524-0.003
	c-0.695,0.694-0.698,1.824-0.003,2.521c1.215,1.221,2.839,1.893,4.564,1.893c1.887,0,3.674-0.822,4.898-2.256
	c0.641-0.749,0.553-1.875-0.196-2.514C43.959,44.103,42.832,44.192,42.191,44.939z"/>
<polygon fill="#FFFFFF" points="65.436,19.865 73.225,18.172 67.863,12.273 65.436,19.865 73.225,18.172 67.863,12.273 "/>
<path fill="#FFFFFF" d="M62.451,14.08C59.158,5.458,49.825,0.731,40.19,2.111c-9.633-1.38-18.966,3.348-22.26,11.97
	C14.051,24.257-5.412,27.388,5.862,31.691c3.262,1.244,8.362,3.342,12.373,3.21c0.044-0.002,0.088,0.001,0.131-0.001
	c1.59,12.733,10.764,22.537,21.824,22.58c11.062-0.043,20.236-9.847,21.826-22.58c0.043,0.002,0.088-0.001,0.131,0.001
	c4.012,0.132,9.111-1.966,12.373-3.21C85.793,27.388,66.331,24.257,62.451,14.08z M40.264,53.916c-0.025,0-0.049-0.002-0.074-0.002
	c-0.023,0-0.048,0.002-0.072,0.002c-10.234,0-18.561-10.294-18.561-22.949c0-1.762,0.176-3.469,0.48-5.117
	c1.689,1.205,4.508,1.406,7.41,1.184c0.105-0.082,0.209-0.166,0.314-0.244c3.623-2.659,6.555-2.721,10.428-1.835
	c3.875-0.886,6.806-0.824,10.429,1.835c0.108,0.078,0.21,0.162,0.315,0.244c2.9,0.224,5.721,0.021,7.409-1.184
	c0.306,1.648,0.48,3.355,0.48,5.117C58.825,43.622,50.499,53.916,40.264,53.916z M62.759,25.193l-3.091-5.023l5.896-0.164
	L62.759,25.193z"/>
</svg>
